<mxfile host="Electron" agent="Mozilla/5.0 (Windows NT 10.0; Win64; x64) AppleWebKit/537.36 (KHTML, like Gecko) draw.io/26.2.2 Chrome/134.0.6998.178 Electron/35.1.2 Safari/537.36" version="26.2.2">
  <diagram name="Page-1" id="fTK2-_nE2ECoQaLX6WDY">
    <mxGraphModel dx="1693" dy="995" grid="1" gridSize="10" guides="1" tooltips="1" connect="1" arrows="1" fold="1" page="1" pageScale="1" pageWidth="850" pageHeight="1100" math="0" shadow="0">
      <root>
        <mxCell id="0" />
        <mxCell id="1" parent="0" />
        <mxCell id="mErDt8loaM2I_qnQbA61-1" value="" style="rounded=1;whiteSpace=wrap;html=1;fillColor=none;dashed=1;arcSize=15;" vertex="1" parent="1">
          <mxGeometry x="745" y="120" width="690" height="580" as="geometry" />
        </mxCell>
        <mxCell id="JpXoP6ogjb9mBMqZJrbv-30" value="" style="rounded=1;whiteSpace=wrap;html=1;fillColor=none;dashed=1;arcSize=15;" parent="1" vertex="1">
          <mxGeometry x="20" y="120" width="690" height="580" as="geometry" />
        </mxCell>
        <mxCell id="JpXoP6ogjb9mBMqZJrbv-1" value="&lt;font style=&quot;font-size: 30px;&quot;&gt;Data Integration&lt;/font&gt; &lt;span style=&quot;font-weight: normal;&quot;&gt;&lt;font style=&quot;font-size: 15px;&quot;&gt;(how the tables are related)&lt;/font&gt;&lt;/span&gt;" style="text;html=1;align=center;verticalAlign=middle;resizable=0;points=[];autosize=1;strokeColor=none;fillColor=none;fontSize=20;fontStyle=1" parent="1" vertex="1">
          <mxGeometry x="500" width="430" height="50" as="geometry" />
        </mxCell>
        <mxCell id="JpXoP6ogjb9mBMqZJrbv-2" value="crm_cust_info" style="swimlane;fontStyle=0;childLayout=stackLayout;horizontal=1;startSize=30;horizontalStack=0;resizeParent=1;resizeParentMax=0;resizeLast=0;collapsible=1;marginBottom=0;whiteSpace=wrap;html=1;fillColor=#dae8fc;strokeColor=#6c8ebf;fontSize=25;rounded=0;arcSize=15;" parent="1" vertex="1">
          <mxGeometry x="400" y="510" width="250" height="110" as="geometry" />
        </mxCell>
        <mxCell id="JpXoP6ogjb9mBMqZJrbv-3" value="cst_id" style="text;strokeColor=none;fillColor=none;align=left;verticalAlign=middle;spacingLeft=4;spacingRight=4;overflow=hidden;points=[[0,0.5],[1,0.5]];portConstraint=eastwest;rotatable=0;whiteSpace=wrap;html=1;fontSize=25;arcSize=15;" parent="JpXoP6ogjb9mBMqZJrbv-2" vertex="1">
          <mxGeometry y="30" width="250" height="40" as="geometry" />
        </mxCell>
        <mxCell id="JpXoP6ogjb9mBMqZJrbv-20" value="cst_key" style="text;strokeColor=none;fillColor=none;align=left;verticalAlign=middle;spacingLeft=4;spacingRight=4;overflow=hidden;points=[[0,0.5],[1,0.5]];portConstraint=eastwest;rotatable=0;whiteSpace=wrap;html=1;fontSize=25;arcSize=15;rounded=0;" parent="JpXoP6ogjb9mBMqZJrbv-2" vertex="1">
          <mxGeometry y="70" width="250" height="40" as="geometry" />
        </mxCell>
        <mxCell id="JpXoP6ogjb9mBMqZJrbv-6" value="&lt;font style=&quot;font-size: 20px;&quot;&gt;Customer Information&lt;/font&gt;" style="text;html=1;align=center;verticalAlign=middle;whiteSpace=wrap;rounded=0;arcSize=15;" parent="1" vertex="1">
          <mxGeometry x="420" y="480" width="210" height="30" as="geometry" />
        </mxCell>
        <mxCell id="JpXoP6ogjb9mBMqZJrbv-7" value="crm_prd_info" style="swimlane;fontStyle=0;childLayout=stackLayout;horizontal=1;startSize=30;horizontalStack=0;resizeParent=1;resizeParentMax=0;resizeLast=0;collapsible=1;marginBottom=0;whiteSpace=wrap;html=1;fillColor=#dae8fc;strokeColor=#6c8ebf;fontSize=25;rounded=0;arcSize=15;" parent="1" vertex="1">
          <mxGeometry x="400" y="195" width="250" height="70" as="geometry" />
        </mxCell>
        <mxCell id="JpXoP6ogjb9mBMqZJrbv-8" value="prd_key" style="text;strokeColor=none;fillColor=none;align=left;verticalAlign=middle;spacingLeft=4;spacingRight=4;overflow=hidden;points=[[0,0.5],[1,0.5]];portConstraint=eastwest;rotatable=0;whiteSpace=wrap;html=1;fontSize=25;arcSize=15;" parent="JpXoP6ogjb9mBMqZJrbv-7" vertex="1">
          <mxGeometry y="30" width="250" height="40" as="geometry" />
        </mxCell>
        <mxCell id="JpXoP6ogjb9mBMqZJrbv-9" value="&lt;font style=&quot;font-size: 20px;&quot;&gt;Current &amp;amp; History Product Information&lt;/font&gt;" style="text;html=1;align=center;verticalAlign=middle;whiteSpace=wrap;rounded=0;arcSize=15;" parent="1" vertex="1">
          <mxGeometry x="355" y="165" width="340" height="30" as="geometry" />
        </mxCell>
        <mxCell id="JpXoP6ogjb9mBMqZJrbv-11" value="crm_sales_details" style="swimlane;fontStyle=0;childLayout=stackLayout;horizontal=1;startSize=30;horizontalStack=0;resizeParent=1;resizeParentMax=0;resizeLast=0;collapsible=1;marginBottom=0;whiteSpace=wrap;html=1;fillColor=#dae8fc;strokeColor=#6c8ebf;fontSize=25;rounded=0;arcSize=15;swimlaneLine=1;" parent="1" vertex="1">
          <mxGeometry x="65" y="345" width="250" height="110" as="geometry" />
        </mxCell>
        <mxCell id="JpXoP6ogjb9mBMqZJrbv-14" value="cst_id" style="text;strokeColor=none;fillColor=none;align=left;verticalAlign=middle;spacingLeft=4;spacingRight=4;overflow=hidden;points=[[0,0.5],[1,0.5]];portConstraint=eastwest;rotatable=0;whiteSpace=wrap;html=1;fontSize=25;arcSize=15;rounded=0;swimlaneLine=1;imageAspect=1;glass=0;shadow=0;" parent="JpXoP6ogjb9mBMqZJrbv-11" vertex="1">
          <mxGeometry y="30" width="250" height="40" as="geometry" />
        </mxCell>
        <mxCell id="JpXoP6ogjb9mBMqZJrbv-12" value="prd_key" style="text;strokeColor=none;fillColor=none;align=left;verticalAlign=middle;spacingLeft=4;spacingRight=4;overflow=hidden;points=[[0,0.5],[1,0.5]];portConstraint=eastwest;rotatable=0;whiteSpace=wrap;html=1;fontSize=25;arcSize=15;rounded=0;swimlaneLine=1;imageAspect=1;glass=0;shadow=0;" parent="JpXoP6ogjb9mBMqZJrbv-11" vertex="1">
          <mxGeometry y="70" width="250" height="40" as="geometry" />
        </mxCell>
        <mxCell id="JpXoP6ogjb9mBMqZJrbv-13" value="&lt;span style=&quot;font-size: 20px;&quot;&gt;Transactional Records about&lt;/span&gt;&lt;div&gt;&lt;span style=&quot;font-size: 20px;&quot;&gt;&amp;nbsp;Sales &amp;amp; Orders&lt;/span&gt;&lt;/div&gt;" style="text;html=1;align=center;verticalAlign=middle;whiteSpace=wrap;rounded=0;arcSize=15;" parent="1" vertex="1">
          <mxGeometry x="20" y="295" width="340" height="50" as="geometry" />
        </mxCell>
        <mxCell id="JpXoP6ogjb9mBMqZJrbv-17" value="erp_cust_az12" style="swimlane;fontStyle=0;childLayout=stackLayout;horizontal=1;startSize=30;horizontalStack=0;resizeParent=1;resizeParentMax=0;resizeLast=0;collapsible=1;marginBottom=0;whiteSpace=wrap;html=1;fillColor=#fff2cc;strokeColor=#d6b656;fontSize=25;rounded=0;" parent="1" vertex="1">
          <mxGeometry x="970" y="375" width="250" height="70" as="geometry" />
        </mxCell>
        <mxCell id="JpXoP6ogjb9mBMqZJrbv-18" value="cid" style="text;strokeColor=none;fillColor=none;align=left;verticalAlign=middle;spacingLeft=4;spacingRight=4;overflow=hidden;points=[[0,0.5],[1,0.5]];portConstraint=eastwest;rotatable=0;whiteSpace=wrap;html=1;fontSize=25;" parent="JpXoP6ogjb9mBMqZJrbv-17" vertex="1">
          <mxGeometry y="30" width="250" height="40" as="geometry" />
        </mxCell>
        <mxCell id="JpXoP6ogjb9mBMqZJrbv-19" value="&lt;font style=&quot;font-size: 20px;&quot;&gt;Extra Customer Information &amp;amp; Birthdate&lt;/font&gt;" style="text;html=1;align=center;verticalAlign=middle;whiteSpace=wrap;rounded=0;" parent="1" vertex="1">
          <mxGeometry x="910" y="345" width="370" height="30" as="geometry" />
        </mxCell>
        <mxCell id="JpXoP6ogjb9mBMqZJrbv-22" value="erp_loc_a101" style="swimlane;fontStyle=0;childLayout=stackLayout;horizontal=1;startSize=30;horizontalStack=0;resizeParent=1;resizeParentMax=0;resizeLast=0;collapsible=1;marginBottom=0;whiteSpace=wrap;html=1;fillColor=#fff2cc;strokeColor=#d6b656;fontSize=25;rounded=0;" parent="1" vertex="1">
          <mxGeometry x="965" y="550" width="250" height="70" as="geometry" />
        </mxCell>
        <mxCell id="JpXoP6ogjb9mBMqZJrbv-23" value="cid" style="text;strokeColor=none;fillColor=none;align=left;verticalAlign=middle;spacingLeft=4;spacingRight=4;overflow=hidden;points=[[0,0.5],[1,0.5]];portConstraint=eastwest;rotatable=0;whiteSpace=wrap;html=1;fontSize=25;" parent="JpXoP6ogjb9mBMqZJrbv-22" vertex="1">
          <mxGeometry y="30" width="250" height="40" as="geometry" />
        </mxCell>
        <mxCell id="JpXoP6ogjb9mBMqZJrbv-24" value="&lt;font style=&quot;font-size: 20px;&quot;&gt;Location of Customers (Country)&lt;/font&gt;" style="text;html=1;align=center;verticalAlign=middle;whiteSpace=wrap;rounded=0;" parent="1" vertex="1">
          <mxGeometry x="905" y="520" width="370" height="30" as="geometry" />
        </mxCell>
        <mxCell id="JpXoP6ogjb9mBMqZJrbv-26" value="erp_px_gv_g1v2" style="swimlane;fontStyle=0;childLayout=stackLayout;horizontal=1;startSize=30;horizontalStack=0;resizeParent=1;resizeParentMax=0;resizeLast=0;collapsible=1;marginBottom=0;whiteSpace=wrap;html=1;fillColor=#fff2cc;strokeColor=#d6b656;fontSize=25;rounded=0;" parent="1" vertex="1">
          <mxGeometry x="965" y="195" width="250" height="70" as="geometry" />
        </mxCell>
        <mxCell id="JpXoP6ogjb9mBMqZJrbv-27" value="id" style="text;strokeColor=none;fillColor=none;align=left;verticalAlign=middle;spacingLeft=4;spacingRight=4;overflow=hidden;points=[[0,0.5],[1,0.5]];portConstraint=eastwest;rotatable=0;whiteSpace=wrap;html=1;fontSize=25;" parent="JpXoP6ogjb9mBMqZJrbv-26" vertex="1">
          <mxGeometry y="30" width="250" height="40" as="geometry" />
        </mxCell>
        <mxCell id="JpXoP6ogjb9mBMqZJrbv-28" value="&lt;font style=&quot;font-size: 20px;&quot;&gt;Product Categories&lt;/font&gt;" style="text;html=1;align=center;verticalAlign=middle;whiteSpace=wrap;rounded=0;" parent="1" vertex="1">
          <mxGeometry x="905" y="165" width="370" height="30" as="geometry" />
        </mxCell>
        <mxCell id="JpXoP6ogjb9mBMqZJrbv-31" value="CRM" style="rounded=1;whiteSpace=wrap;html=1;fontSize=30;align=center;fontStyle=1;fillColor=#dae8fc;strokeColor=#6c8ebf;arcSize=15;" parent="1" vertex="1">
          <mxGeometry x="285" y="100" width="160" height="40" as="geometry" />
        </mxCell>
        <mxCell id="fuoe1Epmn1hE4tyuHp-M-1" value="PRODUCT" style="text;html=1;strokeColor=#b85450;fillColor=#f8cecc;align=center;verticalAlign=middle;whiteSpace=wrap;overflow=hidden;fontSize=20;fontStyle=1;arcSize=15;" parent="1" vertex="1">
          <mxGeometry x="400" y="265" width="250" height="30" as="geometry" />
        </mxCell>
        <mxCell id="fuoe1Epmn1hE4tyuHp-M-2" value="PRODUCT" style="text;html=1;strokeColor=#b85450;fillColor=#f8cecc;align=center;verticalAlign=middle;whiteSpace=wrap;overflow=hidden;fontSize=20;fontStyle=1" parent="1" vertex="1">
          <mxGeometry x="965" y="265" width="250" height="30" as="geometry" />
        </mxCell>
        <mxCell id="fuoe1Epmn1hE4tyuHp-M-3" value="CUSTOMER" style="text;html=1;strokeColor=#82b366;fillColor=#d5e8d4;align=center;verticalAlign=middle;whiteSpace=wrap;overflow=hidden;fontSize=20;fontStyle=1;arcSize=15;" parent="1" vertex="1">
          <mxGeometry x="400" y="620" width="250" height="30" as="geometry" />
        </mxCell>
        <mxCell id="fuoe1Epmn1hE4tyuHp-M-4" value="CUSTOMER" style="text;html=1;strokeColor=#82b366;fillColor=#d5e8d4;align=center;verticalAlign=middle;whiteSpace=wrap;overflow=hidden;fontSize=20;fontStyle=1" parent="1" vertex="1">
          <mxGeometry x="970" y="445" width="250" height="30" as="geometry" />
        </mxCell>
        <mxCell id="fuoe1Epmn1hE4tyuHp-M-5" value="CUSTOMER" style="text;html=1;strokeColor=#82b366;fillColor=#d5e8d4;align=center;verticalAlign=middle;whiteSpace=wrap;overflow=hidden;fontSize=20;fontStyle=1" parent="1" vertex="1">
          <mxGeometry x="965" y="615" width="250" height="30" as="geometry" />
        </mxCell>
        <mxCell id="fuoe1Epmn1hE4tyuHp-M-6" value="SALES" style="text;html=1;strokeColor=#9673a6;fillColor=#e1d5e7;align=center;verticalAlign=middle;whiteSpace=wrap;overflow=hidden;fontSize=20;fontStyle=1;arcSize=15;rounded=0;swimlaneLine=1;imageAspect=1;" parent="1" vertex="1">
          <mxGeometry x="65" y="455" width="250" height="30" as="geometry" />
        </mxCell>
        <mxCell id="mErDt8loaM2I_qnQbA61-2" value="ERP" style="rounded=1;whiteSpace=wrap;html=1;fontSize=30;align=center;fontStyle=1;fillColor=#fff2cc;strokeColor=#d6b656;arcSize=15;" vertex="1" parent="1">
          <mxGeometry x="1010" y="100" width="160" height="40" as="geometry" />
        </mxCell>
        <mxCell id="mErDt8loaM2I_qnQbA61-3" value="" style="endArrow=none;html=1;rounded=0;exitX=1;exitY=0.5;exitDx=0;exitDy=0;entryX=0;entryY=0.5;entryDx=0;entryDy=0;" edge="1" parent="1" source="JpXoP6ogjb9mBMqZJrbv-14" target="JpXoP6ogjb9mBMqZJrbv-8">
          <mxGeometry width="50" height="50" relative="1" as="geometry">
            <mxPoint x="330" y="440" as="sourcePoint" />
            <mxPoint x="380" y="390" as="targetPoint" />
            <Array as="points">
              <mxPoint x="360" y="395" />
              <mxPoint x="360" y="245" />
            </Array>
          </mxGeometry>
        </mxCell>
        <mxCell id="mErDt8loaM2I_qnQbA61-4" value="" style="endArrow=none;html=1;rounded=0;exitX=1;exitY=0.5;exitDx=0;exitDy=0;entryX=0;entryY=0.5;entryDx=0;entryDy=0;" edge="1" parent="1" source="JpXoP6ogjb9mBMqZJrbv-12" target="JpXoP6ogjb9mBMqZJrbv-3">
          <mxGeometry width="50" height="50" relative="1" as="geometry">
            <mxPoint x="330" y="600" as="sourcePoint" />
            <mxPoint x="380" y="550" as="targetPoint" />
            <Array as="points">
              <mxPoint x="360" y="435" />
              <mxPoint x="360" y="560" />
            </Array>
          </mxGeometry>
        </mxCell>
        <mxCell id="mErDt8loaM2I_qnQbA61-5" value="" style="endArrow=none;html=1;rounded=0;exitX=1;exitY=0.5;exitDx=0;exitDy=0;entryX=0;entryY=0.5;entryDx=0;entryDy=0;" edge="1" parent="1" source="JpXoP6ogjb9mBMqZJrbv-8" target="JpXoP6ogjb9mBMqZJrbv-27">
          <mxGeometry width="50" height="50" relative="1" as="geometry">
            <mxPoint x="780" y="290" as="sourcePoint" />
            <mxPoint x="830" y="240" as="targetPoint" />
          </mxGeometry>
        </mxCell>
        <mxCell id="mErDt8loaM2I_qnQbA61-6" value="" style="endArrow=none;html=1;rounded=0;exitX=1;exitY=0.5;exitDx=0;exitDy=0;entryX=0;entryY=0.5;entryDx=0;entryDy=0;" edge="1" parent="1" source="JpXoP6ogjb9mBMqZJrbv-20" target="JpXoP6ogjb9mBMqZJrbv-23">
          <mxGeometry width="50" height="50" relative="1" as="geometry">
            <mxPoint x="770" y="590" as="sourcePoint" />
            <mxPoint x="820" y="540" as="targetPoint" />
          </mxGeometry>
        </mxCell>
        <mxCell id="mErDt8loaM2I_qnQbA61-7" value="" style="endArrow=none;html=1;rounded=0;entryX=0;entryY=0.5;entryDx=0;entryDy=0;" edge="1" parent="1" target="JpXoP6ogjb9mBMqZJrbv-18">
          <mxGeometry width="50" height="50" relative="1" as="geometry">
            <mxPoint x="850" y="600" as="sourcePoint" />
            <mxPoint x="710" y="380" as="targetPoint" />
            <Array as="points">
              <mxPoint x="850" y="425" />
            </Array>
          </mxGeometry>
        </mxCell>
        <mxCell id="mErDt8loaM2I_qnQbA61-8" value="Customer Relationship Management" style="text;html=1;align=center;verticalAlign=middle;resizable=0;points=[];autosize=1;strokeColor=none;fillColor=none;fontSize=16;" vertex="1" parent="1">
          <mxGeometry x="225" y="70" width="280" height="30" as="geometry" />
        </mxCell>
        <mxCell id="mErDt8loaM2I_qnQbA61-9" value="Enterprise Resource Planning" style="text;html=1;align=center;verticalAlign=middle;resizable=0;points=[];autosize=1;strokeColor=none;fillColor=none;fontSize=16;" vertex="1" parent="1">
          <mxGeometry x="970" y="70" width="240" height="30" as="geometry" />
        </mxCell>
      </root>
    </mxGraphModel>
  </diagram>
</mxfile>
